<svg width="431" height="546" viewBox="0 0 431 546" fill="none" xmlns="http://www.w3.org/2000/svg">
<g clip-path="url(#clip0)">
<rect width="375" height="812" transform="translate(27 27)" fill="white"/>
<g clip-path="url(#clip1)">
<rect width="375" height="1404" transform="translate(27 -880)" fill="white"/>
<g filter="url(#filter0_d)">
<rect x="42" y="-324" width="345" height="362" rx="15" fill="white"/>
</g>
<g filter="url(#filter1_d)">
<rect x="42" y="62" width="345" height="408" rx="15" fill="white"/>
<path d="M80.879 395.152C80.415 395.152 80.047 395.276 79.775 395.524C79.511 395.772 79.311 396.08 79.175 396.448C79.039 396.816 78.951 397.208 78.911 397.624C78.879 398.04 78.863 398.416 78.863 398.752C78.863 399.088 78.879 399.464 78.911 399.88C78.951 400.296 79.039 400.688 79.175 401.056C79.311 401.424 79.511 401.732 79.775 401.98C80.047 402.228 80.415 402.352 80.879 402.352C81.343 402.352 81.707 402.228 81.971 401.98C82.243 401.732 82.447 401.424 82.583 401.056C82.719 400.688 82.803 400.296 82.835 399.88C82.875 399.464 82.895 399.088 82.895 398.752C82.895 398.416 82.875 398.04 82.835 397.624C82.803 397.208 82.719 396.816 82.583 396.448C82.447 396.08 82.243 395.772 81.971 395.524C81.707 395.276 81.343 395.152 80.879 395.152ZM80.879 394.36C81.487 394.36 81.979 394.5 82.355 394.78C82.731 395.06 83.023 395.416 83.231 395.848C83.439 396.28 83.579 396.756 83.651 397.276C83.723 397.788 83.759 398.28 83.759 398.752C83.759 399.224 83.723 399.72 83.651 400.24C83.579 400.752 83.439 401.224 83.231 401.656C83.023 402.088 82.731 402.444 82.355 402.724C81.979 403.004 81.487 403.144 80.879 403.144C80.271 403.144 79.779 403.004 79.403 402.724C79.027 402.444 78.735 402.088 78.527 401.656C78.319 401.224 78.179 400.752 78.107 400.24C78.035 399.72 77.999 399.224 77.999 398.752C77.999 398.28 78.035 397.788 78.107 397.276C78.179 396.756 78.319 396.28 78.527 395.848C78.735 395.416 79.027 395.06 79.403 394.78C79.779 394.5 80.271 394.36 80.879 394.36ZM85.8669 399.916L88.5189 397.384H89.7069L86.9109 399.952L90.0069 403H88.7829L85.8669 400.048V403H85.0749V393.928H85.8669V399.916Z" fill="#979797"/>
<path d="M92 399L365 399" stroke="#EFF3F9"/>
<path d="M76.455 347.296H72.975L72.927 349.852C73.111 349.78 73.299 349.728 73.491 349.696C73.683 349.664 73.875 349.648 74.067 349.648C74.467 349.648 74.831 349.716 75.159 349.852C75.487 349.988 75.767 350.18 75.999 350.428C76.239 350.668 76.423 350.956 76.551 351.292C76.687 351.62 76.755 351.98 76.755 352.372C76.755 352.78 76.683 353.156 76.539 353.5C76.395 353.836 76.195 354.128 75.939 354.376C75.683 354.616 75.379 354.804 75.027 354.94C74.683 355.076 74.307 355.144 73.899 355.144C73.363 355.144 72.879 355.016 72.447 354.76C72.015 354.504 71.683 354.128 71.451 353.632L72.303 353.26C72.463 353.596 72.687 353.864 72.975 354.064C73.263 354.256 73.595 354.352 73.971 354.352C74.243 354.352 74.495 354.304 74.727 354.208C74.959 354.104 75.159 353.968 75.327 353.8C75.503 353.632 75.639 353.432 75.735 353.2C75.839 352.968 75.891 352.72 75.891 352.456C75.891 352.16 75.839 351.888 75.735 351.64C75.631 351.392 75.487 351.18 75.303 351.004C75.119 350.82 74.899 350.68 74.643 350.584C74.387 350.488 74.107 350.44 73.803 350.44C73.499 350.44 73.195 350.484 72.891 350.572C72.595 350.652 72.311 350.764 72.039 350.908L72.123 346.504H76.455V347.296ZM80.879 347.152C80.415 347.152 80.047 347.276 79.775 347.524C79.511 347.772 79.311 348.08 79.175 348.448C79.039 348.816 78.951 349.208 78.911 349.624C78.879 350.04 78.863 350.416 78.863 350.752C78.863 351.088 78.879 351.464 78.911 351.88C78.951 352.296 79.039 352.688 79.175 353.056C79.311 353.424 79.511 353.732 79.775 353.98C80.047 354.228 80.415 354.352 80.879 354.352C81.343 354.352 81.707 354.228 81.971 353.98C82.243 353.732 82.447 353.424 82.583 353.056C82.719 352.688 82.803 352.296 82.835 351.88C82.875 351.464 82.895 351.088 82.895 350.752C82.895 350.416 82.875 350.04 82.835 349.624C82.803 349.208 82.719 348.816 82.583 348.448C82.447 348.08 82.243 347.772 81.971 347.524C81.707 347.276 81.343 347.152 80.879 347.152ZM80.879 346.36C81.487 346.36 81.979 346.5 82.355 346.78C82.731 347.06 83.023 347.416 83.231 347.848C83.439 348.28 83.579 348.756 83.651 349.276C83.723 349.788 83.759 350.28 83.759 350.752C83.759 351.224 83.723 351.72 83.651 352.24C83.579 352.752 83.439 353.224 83.231 353.656C83.023 354.088 82.731 354.444 82.355 354.724C81.979 355.004 81.487 355.144 80.879 355.144C80.271 355.144 79.779 355.004 79.403 354.724C79.027 354.444 78.735 354.088 78.527 353.656C78.319 353.224 78.179 352.752 78.107 352.24C78.035 351.72 77.999 351.224 77.999 350.752C77.999 350.28 78.035 349.788 78.107 349.276C78.179 348.756 78.319 348.28 78.527 347.848C78.735 347.416 79.027 347.06 79.403 346.78C79.779 346.5 80.271 346.36 80.879 346.36ZM85.8669 351.916L88.5189 349.384H89.7069L86.9109 351.952L90.0069 355H88.7829L85.8669 352.048V355H85.0749V345.928H85.8669V351.916Z" fill="#979797"/>
<path d="M92 351L365 351" stroke="#EFF3F9"/>
<path d="M68.383 307H67.519V299.584L65.995 300.928L65.455 300.28L67.615 298.504H68.383V307ZM74.211 299.152C73.747 299.152 73.379 299.276 73.107 299.524C72.843 299.772 72.643 300.08 72.507 300.448C72.371 300.816 72.283 301.208 72.243 301.624C72.211 302.04 72.195 302.416 72.195 302.752C72.195 303.088 72.211 303.464 72.243 303.88C72.283 304.296 72.371 304.688 72.507 305.056C72.643 305.424 72.843 305.732 73.107 305.98C73.379 306.228 73.747 306.352 74.211 306.352C74.675 306.352 75.039 306.228 75.303 305.98C75.575 305.732 75.779 305.424 75.915 305.056C76.051 304.688 76.135 304.296 76.167 303.88C76.207 303.464 76.227 303.088 76.227 302.752C76.227 302.416 76.207 302.04 76.167 301.624C76.135 301.208 76.051 300.816 75.915 300.448C75.779 300.08 75.575 299.772 75.303 299.524C75.039 299.276 74.675 299.152 74.211 299.152ZM74.211 298.36C74.819 298.36 75.311 298.5 75.687 298.78C76.063 299.06 76.355 299.416 76.563 299.848C76.771 300.28 76.911 300.756 76.983 301.276C77.055 301.788 77.091 302.28 77.091 302.752C77.091 303.224 77.055 303.72 76.983 304.24C76.911 304.752 76.771 305.224 76.563 305.656C76.355 306.088 76.063 306.444 75.687 306.724C75.311 307.004 74.819 307.144 74.211 307.144C73.603 307.144 73.111 307.004 72.735 306.724C72.359 306.444 72.067 306.088 71.859 305.656C71.651 305.224 71.511 304.752 71.439 304.24C71.367 303.72 71.331 303.224 71.331 302.752C71.331 302.28 71.367 301.788 71.439 301.276C71.511 300.756 71.651 300.28 71.859 299.848C72.067 299.416 72.359 299.06 72.735 298.78C73.111 298.5 73.603 298.36 74.211 298.36ZM80.879 299.152C80.415 299.152 80.047 299.276 79.775 299.524C79.511 299.772 79.311 300.08 79.175 300.448C79.039 300.816 78.951 301.208 78.911 301.624C78.879 302.04 78.863 302.416 78.863 302.752C78.863 303.088 78.879 303.464 78.911 303.88C78.951 304.296 79.039 304.688 79.175 305.056C79.311 305.424 79.511 305.732 79.775 305.98C80.047 306.228 80.415 306.352 80.879 306.352C81.343 306.352 81.707 306.228 81.971 305.98C82.243 305.732 82.447 305.424 82.583 305.056C82.719 304.688 82.803 304.296 82.835 303.88C82.875 303.464 82.895 303.088 82.895 302.752C82.895 302.416 82.875 302.04 82.835 301.624C82.803 301.208 82.719 300.816 82.583 300.448C82.447 300.08 82.243 299.772 81.971 299.524C81.707 299.276 81.343 299.152 80.879 299.152ZM80.879 298.36C81.487 298.36 81.979 298.5 82.355 298.78C82.731 299.06 83.023 299.416 83.231 299.848C83.439 300.28 83.579 300.756 83.651 301.276C83.723 301.788 83.759 302.28 83.759 302.752C83.759 303.224 83.723 303.72 83.651 304.24C83.579 304.752 83.439 305.224 83.231 305.656C83.023 306.088 82.731 306.444 82.355 306.724C81.979 307.004 81.487 307.144 80.879 307.144C80.271 307.144 79.779 307.004 79.403 306.724C79.027 306.444 78.735 306.088 78.527 305.656C78.319 305.224 78.179 304.752 78.107 304.24C78.035 303.72 77.999 303.224 77.999 302.752C77.999 302.28 78.035 301.788 78.107 301.276C78.179 300.756 78.319 300.28 78.527 299.848C78.735 299.416 79.027 299.06 79.403 298.78C79.779 298.5 80.271 298.36 80.879 298.36ZM85.8669 303.916L88.5189 301.384H89.7069L86.9109 303.952L90.0069 307H88.7829L85.8669 304.048V307H85.0749V297.928H85.8669V303.916Z" fill="#979797"/>
<path d="M92 303L365 303" stroke="#EFF3F9"/>
<path d="M68.383 259H67.519V251.584L65.995 252.928L65.455 252.28L67.615 250.504H68.383V259ZM76.455 251.296H72.975L72.927 253.852C73.111 253.78 73.299 253.728 73.491 253.696C73.683 253.664 73.875 253.648 74.067 253.648C74.467 253.648 74.831 253.716 75.159 253.852C75.487 253.988 75.767 254.18 75.999 254.428C76.239 254.668 76.423 254.956 76.551 255.292C76.687 255.62 76.755 255.98 76.755 256.372C76.755 256.78 76.683 257.156 76.539 257.5C76.395 257.836 76.195 258.128 75.939 258.376C75.683 258.616 75.379 258.804 75.027 258.94C74.683 259.076 74.307 259.144 73.899 259.144C73.363 259.144 72.879 259.016 72.447 258.76C72.015 258.504 71.683 258.128 71.451 257.632L72.303 257.26C72.463 257.596 72.687 257.864 72.975 258.064C73.263 258.256 73.595 258.352 73.971 258.352C74.243 258.352 74.495 258.304 74.727 258.208C74.959 258.104 75.159 257.968 75.327 257.8C75.503 257.632 75.639 257.432 75.735 257.2C75.839 256.968 75.891 256.72 75.891 256.456C75.891 256.16 75.839 255.888 75.735 255.64C75.631 255.392 75.487 255.18 75.303 255.004C75.119 254.82 74.899 254.68 74.643 254.584C74.387 254.488 74.107 254.44 73.803 254.44C73.499 254.44 73.195 254.484 72.891 254.572C72.595 254.652 72.311 254.764 72.039 254.908L72.123 250.504H76.455V251.296ZM80.879 251.152C80.415 251.152 80.047 251.276 79.775 251.524C79.511 251.772 79.311 252.08 79.175 252.448C79.039 252.816 78.951 253.208 78.911 253.624C78.879 254.04 78.863 254.416 78.863 254.752C78.863 255.088 78.879 255.464 78.911 255.88C78.951 256.296 79.039 256.688 79.175 257.056C79.311 257.424 79.511 257.732 79.775 257.98C80.047 258.228 80.415 258.352 80.879 258.352C81.343 258.352 81.707 258.228 81.971 257.98C82.243 257.732 82.447 257.424 82.583 257.056C82.719 256.688 82.803 256.296 82.835 255.88C82.875 255.464 82.895 255.088 82.895 254.752C82.895 254.416 82.875 254.04 82.835 253.624C82.803 253.208 82.719 252.816 82.583 252.448C82.447 252.08 82.243 251.772 81.971 251.524C81.707 251.276 81.343 251.152 80.879 251.152ZM80.879 250.36C81.487 250.36 81.979 250.5 82.355 250.78C82.731 251.06 83.023 251.416 83.231 251.848C83.439 252.28 83.579 252.756 83.651 253.276C83.723 253.788 83.759 254.28 83.759 254.752C83.759 255.224 83.723 255.72 83.651 256.24C83.579 256.752 83.439 257.224 83.231 257.656C83.023 258.088 82.731 258.444 82.355 258.724C81.979 259.004 81.487 259.144 80.879 259.144C80.271 259.144 79.779 259.004 79.403 258.724C79.027 258.444 78.735 258.088 78.527 257.656C78.319 257.224 78.179 256.752 78.107 256.24C78.035 255.72 77.999 255.224 77.999 254.752C77.999 254.28 78.035 253.788 78.107 253.276C78.179 252.756 78.319 252.28 78.527 251.848C78.735 251.416 79.027 251.06 79.403 250.78C79.779 250.5 80.271 250.36 80.879 250.36ZM85.8669 255.916L88.5189 253.384H89.7069L86.9109 255.952L90.0069 259H88.7829L85.8669 256.048V259H85.0749V249.928H85.8669V255.916Z" fill="#979797"/>
<path d="M92 255L365 255" stroke="#EFF3F9"/>
<path d="M70.183 211H64.783V210.004L68.167 206.56C68.295 206.432 68.423 206.296 68.551 206.152C68.679 206.008 68.795 205.856 68.899 205.696C69.003 205.536 69.087 205.368 69.151 205.192C69.215 205.016 69.247 204.832 69.247 204.64C69.247 204.408 69.203 204.2 69.115 204.016C69.035 203.832 68.919 203.676 68.767 203.548C68.615 203.42 68.439 203.324 68.239 203.26C68.039 203.188 67.827 203.152 67.603 203.152C67.171 203.152 66.803 203.272 66.499 203.512C66.195 203.752 65.999 204.076 65.911 204.484L64.999 204.388C65.119 203.756 65.407 203.26 65.863 202.9C66.327 202.54 66.887 202.36 67.543 202.36C67.887 202.36 68.211 202.408 68.515 202.504C68.827 202.592 69.099 202.728 69.331 202.912C69.571 203.096 69.759 203.328 69.895 203.608C70.039 203.88 70.111 204.2 70.111 204.568C70.111 204.896 70.059 205.196 69.955 205.468C69.859 205.74 69.731 205.996 69.571 206.236C69.411 206.476 69.227 206.704 69.019 206.92C68.819 207.136 68.611 207.348 68.395 207.556L65.719 210.208H70.183V211ZM74.211 203.152C73.747 203.152 73.379 203.276 73.107 203.524C72.843 203.772 72.643 204.08 72.507 204.448C72.371 204.816 72.283 205.208 72.243 205.624C72.211 206.04 72.195 206.416 72.195 206.752C72.195 207.088 72.211 207.464 72.243 207.88C72.283 208.296 72.371 208.688 72.507 209.056C72.643 209.424 72.843 209.732 73.107 209.98C73.379 210.228 73.747 210.352 74.211 210.352C74.675 210.352 75.039 210.228 75.303 209.98C75.575 209.732 75.779 209.424 75.915 209.056C76.051 208.688 76.135 208.296 76.167 207.88C76.207 207.464 76.227 207.088 76.227 206.752C76.227 206.416 76.207 206.04 76.167 205.624C76.135 205.208 76.051 204.816 75.915 204.448C75.779 204.08 75.575 203.772 75.303 203.524C75.039 203.276 74.675 203.152 74.211 203.152ZM74.211 202.36C74.819 202.36 75.311 202.5 75.687 202.78C76.063 203.06 76.355 203.416 76.563 203.848C76.771 204.28 76.911 204.756 76.983 205.276C77.055 205.788 77.091 206.28 77.091 206.752C77.091 207.224 77.055 207.72 76.983 208.24C76.911 208.752 76.771 209.224 76.563 209.656C76.355 210.088 76.063 210.444 75.687 210.724C75.311 211.004 74.819 211.144 74.211 211.144C73.603 211.144 73.111 211.004 72.735 210.724C72.359 210.444 72.067 210.088 71.859 209.656C71.651 209.224 71.511 208.752 71.439 208.24C71.367 207.72 71.331 207.224 71.331 206.752C71.331 206.28 71.367 205.788 71.439 205.276C71.511 204.756 71.651 204.28 71.859 203.848C72.067 203.416 72.359 203.06 72.735 202.78C73.111 202.5 73.603 202.36 74.211 202.36ZM80.879 203.152C80.415 203.152 80.047 203.276 79.775 203.524C79.511 203.772 79.311 204.08 79.175 204.448C79.039 204.816 78.951 205.208 78.911 205.624C78.879 206.04 78.863 206.416 78.863 206.752C78.863 207.088 78.879 207.464 78.911 207.88C78.951 208.296 79.039 208.688 79.175 209.056C79.311 209.424 79.511 209.732 79.775 209.98C80.047 210.228 80.415 210.352 80.879 210.352C81.343 210.352 81.707 210.228 81.971 209.98C82.243 209.732 82.447 209.424 82.583 209.056C82.719 208.688 82.803 208.296 82.835 207.88C82.875 207.464 82.895 207.088 82.895 206.752C82.895 206.416 82.875 206.04 82.835 205.624C82.803 205.208 82.719 204.816 82.583 204.448C82.447 204.08 82.243 203.772 81.971 203.524C81.707 203.276 81.343 203.152 80.879 203.152ZM80.879 202.36C81.487 202.36 81.979 202.5 82.355 202.78C82.731 203.06 83.023 203.416 83.231 203.848C83.439 204.28 83.579 204.756 83.651 205.276C83.723 205.788 83.759 206.28 83.759 206.752C83.759 207.224 83.723 207.72 83.651 208.24C83.579 208.752 83.439 209.224 83.231 209.656C83.023 210.088 82.731 210.444 82.355 210.724C81.979 211.004 81.487 211.144 80.879 211.144C80.271 211.144 79.779 211.004 79.403 210.724C79.027 210.444 78.735 210.088 78.527 209.656C78.319 209.224 78.179 208.752 78.107 208.24C78.035 207.72 77.999 207.224 77.999 206.752C77.999 206.28 78.035 205.788 78.107 205.276C78.179 204.756 78.319 204.28 78.527 203.848C78.735 203.416 79.027 203.06 79.403 202.78C79.779 202.5 80.271 202.36 80.879 202.36ZM85.8669 207.916L88.5189 205.384H89.7069L86.9109 207.952L90.0069 211H88.7829L85.8669 208.048V211H85.0749V201.928H85.8669V207.916Z" fill="#979797"/>
<path d="M93 207L366 207" stroke="#EFF3F9"/>
<path d="M114.654 412.504H115.806V418.576C115.806 419.112 115.722 419.552 115.554 419.896C115.386 420.232 115.174 420.5 114.918 420.7C114.67 420.892 114.402 421.024 114.114 421.096C113.826 421.176 113.562 421.216 113.322 421.216C112.722 421.216 112.214 421.064 111.798 420.76C111.39 420.448 111.13 419.98 111.018 419.356L112.146 419.104C112.21 419.424 112.342 419.676 112.542 419.86C112.742 420.044 113.002 420.136 113.322 420.136C113.61 420.136 113.838 420.08 114.006 419.968C114.182 419.856 114.318 419.712 114.414 419.536C114.51 419.352 114.574 419.144 114.606 418.912C114.638 418.68 114.654 418.444 114.654 418.204V412.504ZM117.539 416.008C117.843 415.728 118.195 415.52 118.595 415.384C118.995 415.24 119.395 415.168 119.795 415.168C120.211 415.168 120.567 415.22 120.863 415.324C121.167 415.428 121.415 415.568 121.607 415.744C121.799 415.92 121.939 416.124 122.027 416.356C122.123 416.58 122.171 416.816 122.171 417.064V419.968C122.171 420.168 122.175 420.352 122.183 420.52C122.191 420.688 122.203 420.848 122.219 421H121.259C121.235 420.712 121.223 420.424 121.223 420.136H121.199C120.959 420.504 120.675 420.764 120.347 420.916C120.019 421.068 119.639 421.144 119.207 421.144C118.943 421.144 118.691 421.108 118.451 421.036C118.211 420.964 117.999 420.856 117.815 420.712C117.639 420.568 117.499 420.392 117.395 420.184C117.291 419.968 117.239 419.72 117.239 419.44C117.239 419.072 117.319 418.764 117.479 418.516C117.647 418.268 117.871 418.068 118.151 417.916C118.439 417.756 118.771 417.644 119.147 417.58C119.531 417.508 119.939 417.472 120.371 417.472H121.163V417.232C121.163 417.088 121.135 416.944 121.079 416.8C121.023 416.656 120.939 416.528 120.827 416.416C120.715 416.296 120.575 416.204 120.407 416.14C120.239 416.068 120.039 416.032 119.807 416.032C119.599 416.032 119.415 416.052 119.255 416.092C119.103 416.132 118.963 416.184 118.835 416.248C118.707 416.304 118.591 416.372 118.487 416.452C118.383 416.532 118.283 416.608 118.187 416.68L117.539 416.008ZM120.587 418.264C120.331 418.264 120.067 418.28 119.795 418.312C119.531 418.336 119.287 418.388 119.063 418.468C118.847 418.548 118.667 418.66 118.523 418.804C118.387 418.948 118.319 419.132 118.319 419.356C118.319 419.684 118.427 419.92 118.643 420.064C118.867 420.208 119.167 420.28 119.543 420.28C119.839 420.28 120.091 420.232 120.299 420.136C120.507 420.032 120.675 419.9 120.803 419.74C120.931 419.58 121.023 419.404 121.079 419.212C121.135 419.012 121.163 418.816 121.163 418.624V418.264H120.587ZM123.738 415.312H124.818V416.188H124.842C124.978 415.884 125.214 415.64 125.55 415.456C125.886 415.264 126.274 415.168 126.714 415.168C126.986 415.168 127.246 415.212 127.494 415.3C127.75 415.38 127.97 415.508 128.154 415.684C128.346 415.86 128.498 416.088 128.61 416.368C128.722 416.64 128.778 416.964 128.778 417.34V421H127.698V417.64C127.698 417.376 127.662 417.152 127.59 416.968C127.518 416.776 127.422 416.624 127.302 416.512C127.182 416.392 127.042 416.308 126.882 416.26C126.73 416.204 126.57 416.176 126.402 416.176C126.178 416.176 125.97 416.212 125.778 416.284C125.586 416.356 125.418 416.472 125.274 416.632C125.13 416.784 125.018 416.98 124.938 417.22C124.858 417.46 124.818 417.744 124.818 418.072V421H123.738V415.312Z" fill="#6B7280"/>
<path d="M112 243.5C112 241.015 114.015 239 116.5 239C118.985 239 121 241.015 121 243.5V399H112V243.5Z" fill="#034EA2"/>
<path d="M121 308.5C121 306.015 123.015 304 125.5 304C127.985 304 130 306.015 130 308.5V399H121V308.5Z" fill="#CFD8E3"/>
<path d="M155.787 412.504H161.127V413.584H156.939V416.248H160.839V417.328H156.939V421H155.787V412.504ZM163.218 418.552C163.218 418.8 163.27 419.028 163.374 419.236C163.486 419.436 163.63 419.608 163.806 419.752C163.982 419.896 164.186 420.008 164.418 420.088C164.65 420.168 164.89 420.208 165.138 420.208C165.474 420.208 165.766 420.132 166.014 419.98C166.262 419.82 166.49 419.612 166.698 419.356L167.514 419.98C166.914 420.756 166.074 421.144 164.994 421.144C164.546 421.144 164.138 421.068 163.77 420.916C163.41 420.764 163.102 420.556 162.846 420.292C162.598 420.02 162.406 419.704 162.27 419.344C162.134 418.976 162.066 418.58 162.066 418.156C162.066 417.732 162.138 417.34 162.282 416.98C162.434 416.612 162.638 416.296 162.894 416.032C163.158 415.76 163.47 415.548 163.83 415.396C164.19 415.244 164.582 415.168 165.006 415.168C165.51 415.168 165.934 415.256 166.278 415.432C166.63 415.608 166.918 415.84 167.142 416.128C167.366 416.408 167.526 416.728 167.622 417.088C167.726 417.44 167.778 417.8 167.778 418.168V418.552H163.218ZM166.626 417.688C166.618 417.448 166.578 417.228 166.506 417.028C166.442 416.828 166.342 416.656 166.206 416.512C166.07 416.36 165.898 416.244 165.69 416.164C165.49 416.076 165.254 416.032 164.982 416.032C164.718 416.032 164.474 416.084 164.25 416.188C164.034 416.284 163.85 416.412 163.698 416.572C163.546 416.732 163.426 416.912 163.338 417.112C163.258 417.304 163.218 417.496 163.218 417.688H166.626ZM169.07 411.928H170.15V416.128H170.174C170.366 415.832 170.642 415.6 171.002 415.432C171.362 415.256 171.746 415.168 172.154 415.168C172.594 415.168 172.99 415.244 173.342 415.396C173.702 415.548 174.006 415.76 174.254 416.032C174.51 416.296 174.706 416.612 174.842 416.98C174.978 417.34 175.046 417.732 175.046 418.156C175.046 418.58 174.978 418.972 174.842 419.332C174.706 419.692 174.51 420.008 174.254 420.28C174.006 420.552 173.702 420.764 173.342 420.916C172.99 421.068 172.594 421.144 172.154 421.144C171.77 421.144 171.394 421.06 171.026 420.892C170.666 420.724 170.382 420.488 170.174 420.184H170.15V421H169.07V411.928ZM172.022 420.136C172.31 420.136 172.57 420.088 172.802 419.992C173.034 419.888 173.23 419.752 173.39 419.584C173.55 419.408 173.674 419.2 173.762 418.96C173.85 418.712 173.894 418.444 173.894 418.156C173.894 417.868 173.85 417.604 173.762 417.364C173.674 417.116 173.55 416.908 173.39 416.74C173.23 416.564 173.034 416.428 172.802 416.332C172.57 416.228 172.31 416.176 172.022 416.176C171.734 416.176 171.474 416.228 171.242 416.332C171.01 416.428 170.814 416.564 170.654 416.74C170.494 416.908 170.37 417.116 170.282 417.364C170.194 417.604 170.15 417.868 170.15 418.156C170.15 418.444 170.194 418.712 170.282 418.96C170.37 419.2 170.494 419.408 170.654 419.584C170.814 419.752 171.01 419.888 171.242 419.992C171.474 420.088 171.734 420.136 172.022 420.136Z" fill="#6B7280"/>
<path d="M158 343.5C158 341.015 160.015 339 162.5 339C164.985 339 167 341.015 167 343.5V399H158V343.5Z" fill="#034EA2"/>
<path d="M167 308.5C167 306.015 169.015 304 171.5 304C173.985 304 176 306.015 176 308.5V399H167V308.5Z" fill="#CFD8E3"/>
<path d="M201.058 412.504H202.774L205.474 418.936H205.522L208.198 412.504H209.914V421H208.762V414.016H208.738L205.87 421H205.102L202.234 414.016H202.21V421H201.058V412.504ZM211.765 416.008C212.069 415.728 212.421 415.52 212.821 415.384C213.221 415.24 213.621 415.168 214.021 415.168C214.437 415.168 214.793 415.22 215.089 415.324C215.393 415.428 215.641 415.568 215.833 415.744C216.025 415.92 216.165 416.124 216.253 416.356C216.349 416.58 216.397 416.816 216.397 417.064V419.968C216.397 420.168 216.401 420.352 216.409 420.52C216.417 420.688 216.429 420.848 216.445 421H215.485C215.461 420.712 215.449 420.424 215.449 420.136H215.425C215.185 420.504 214.901 420.764 214.573 420.916C214.245 421.068 213.865 421.144 213.433 421.144C213.169 421.144 212.917 421.108 212.677 421.036C212.437 420.964 212.225 420.856 212.041 420.712C211.865 420.568 211.725 420.392 211.621 420.184C211.517 419.968 211.465 419.72 211.465 419.44C211.465 419.072 211.545 418.764 211.705 418.516C211.873 418.268 212.097 418.068 212.377 417.916C212.665 417.756 212.997 417.644 213.373 417.58C213.757 417.508 214.165 417.472 214.597 417.472H215.389V417.232C215.389 417.088 215.361 416.944 215.305 416.8C215.249 416.656 215.165 416.528 215.053 416.416C214.941 416.296 214.801 416.204 214.633 416.14C214.465 416.068 214.265 416.032 214.033 416.032C213.825 416.032 213.641 416.052 213.481 416.092C213.329 416.132 213.189 416.184 213.061 416.248C212.933 416.304 212.817 416.372 212.713 416.452C212.609 416.532 212.509 416.608 212.413 416.68L211.765 416.008ZM214.813 418.264C214.557 418.264 214.293 418.28 214.021 418.312C213.757 418.336 213.513 418.388 213.289 418.468C213.073 418.548 212.893 418.66 212.749 418.804C212.613 418.948 212.545 419.132 212.545 419.356C212.545 419.684 212.653 419.92 212.869 420.064C213.093 420.208 213.393 420.28 213.769 420.28C214.065 420.28 214.317 420.232 214.525 420.136C214.733 420.032 214.901 419.9 215.029 419.74C215.157 419.58 215.249 419.404 215.305 419.212C215.361 419.012 215.389 418.816 215.389 418.624V418.264H214.813ZM217.964 415.312H219.044V416.188H219.068C219.14 416.036 219.236 415.9 219.356 415.78C219.476 415.652 219.608 415.544 219.752 415.456C219.904 415.368 220.068 415.3 220.244 415.252C220.42 415.196 220.596 415.168 220.772 415.168C220.948 415.168 221.108 415.192 221.252 415.24L221.204 416.404C221.116 416.38 221.028 416.36 220.94 416.344C220.852 416.328 220.764 416.32 220.676 416.32C220.148 416.32 219.744 416.468 219.464 416.764C219.184 417.06 219.044 417.52 219.044 418.144V421H217.964V415.312Z" fill="#6B7280"/>
<path d="M204 295.5C204 293.015 206.015 291 208.5 291C210.985 291 213 293.015 213 295.5V399H204V295.5Z" fill="#034EA2"/>
<path d="M213 382.5C213 380.015 215.015 378 217.5 378C219.985 378 222 380.015 222 382.5V399H213V382.5Z" fill="#CFD8E3"/>
<path d="M251.119 412.504H252.163L255.799 421H254.455L253.603 418.9H249.559L248.719 421H247.375L251.119 412.504ZM253.183 417.892L251.599 413.992H251.575L249.967 417.892H253.183ZM256.628 415.312H257.708V416.128H257.732C257.94 415.824 258.224 415.588 258.584 415.42C258.952 415.252 259.328 415.168 259.712 415.168C260.152 415.168 260.548 415.244 260.9 415.396C261.26 415.548 261.564 415.76 261.812 416.032C262.068 416.304 262.264 416.624 262.4 416.992C262.536 417.352 262.604 417.74 262.604 418.156C262.604 418.58 262.536 418.976 262.4 419.344C262.264 419.704 262.068 420.02 261.812 420.292C261.564 420.556 261.26 420.764 260.9 420.916C260.548 421.068 260.152 421.144 259.712 421.144C259.304 421.144 258.92 421.06 258.56 420.892C258.2 420.716 257.924 420.48 257.732 420.184H257.708V424.384H256.628V415.312ZM259.58 416.176C259.292 416.176 259.032 416.228 258.8 416.332C258.568 416.428 258.372 416.564 258.212 416.74C258.052 416.908 257.928 417.116 257.84 417.364C257.752 417.604 257.708 417.868 257.708 418.156C257.708 418.444 257.752 418.712 257.84 418.96C257.928 419.2 258.052 419.408 258.212 419.584C258.372 419.752 258.568 419.888 258.8 419.992C259.032 420.088 259.292 420.136 259.58 420.136C259.868 420.136 260.128 420.088 260.36 419.992C260.592 419.888 260.788 419.752 260.948 419.584C261.108 419.408 261.232 419.2 261.32 418.96C261.408 418.712 261.452 418.444 261.452 418.156C261.452 417.868 261.408 417.604 261.32 417.364C261.232 417.116 261.108 416.908 260.948 416.74C260.788 416.564 260.592 416.428 260.36 416.332C260.128 416.228 259.868 416.176 259.58 416.176ZM263.964 415.312H265.044V416.188H265.068C265.14 416.036 265.236 415.9 265.356 415.78C265.476 415.652 265.608 415.544 265.752 415.456C265.904 415.368 266.068 415.3 266.244 415.252C266.42 415.196 266.596 415.168 266.772 415.168C266.948 415.168 267.108 415.192 267.252 415.24L267.204 416.404C267.116 416.38 267.028 416.36 266.94 416.344C266.852 416.328 266.764 416.32 266.676 416.32C266.148 416.32 265.744 416.468 265.464 416.764C265.184 417.06 265.044 417.52 265.044 418.144V421H263.964V415.312Z" fill="#6B7280"/>
<path d="M250 365.5C250 363.015 252.015 361 254.5 361C256.985 361 259 363.015 259 365.5V399H250V365.5Z" fill="#034EA2"/>
<path d="M259 379.5C259 377.015 261.015 375 263.5 375C265.985 375 268 377.015 268 379.5V399H259V379.5Z" fill="#CFD8E3"/>
<path d="M291.5 412.504H293.216L295.916 418.936H295.964L298.64 412.504H300.356V421H299.204V414.016H299.18L296.312 421H295.544L292.676 414.016H292.652V421H291.5V412.504ZM302.207 416.008C302.511 415.728 302.863 415.52 303.263 415.384C303.663 415.24 304.063 415.168 304.463 415.168C304.879 415.168 305.235 415.22 305.531 415.324C305.835 415.428 306.083 415.568 306.275 415.744C306.467 415.92 306.607 416.124 306.695 416.356C306.791 416.58 306.839 416.816 306.839 417.064V419.968C306.839 420.168 306.843 420.352 306.851 420.52C306.859 420.688 306.871 420.848 306.887 421H305.927C305.903 420.712 305.891 420.424 305.891 420.136H305.867C305.627 420.504 305.343 420.764 305.015 420.916C304.687 421.068 304.307 421.144 303.875 421.144C303.611 421.144 303.359 421.108 303.119 421.036C302.879 420.964 302.667 420.856 302.483 420.712C302.307 420.568 302.167 420.392 302.063 420.184C301.959 419.968 301.907 419.72 301.907 419.44C301.907 419.072 301.987 418.764 302.147 418.516C302.315 418.268 302.539 418.068 302.819 417.916C303.107 417.756 303.439 417.644 303.815 417.58C304.199 417.508 304.607 417.472 305.039 417.472H305.831V417.232C305.831 417.088 305.803 416.944 305.747 416.8C305.691 416.656 305.607 416.528 305.495 416.416C305.383 416.296 305.243 416.204 305.075 416.14C304.907 416.068 304.707 416.032 304.475 416.032C304.267 416.032 304.083 416.052 303.923 416.092C303.771 416.132 303.631 416.184 303.503 416.248C303.375 416.304 303.259 416.372 303.155 416.452C303.051 416.532 302.951 416.608 302.855 416.68L302.207 416.008ZM305.255 418.264C304.999 418.264 304.735 418.28 304.463 418.312C304.199 418.336 303.955 418.388 303.731 418.468C303.515 418.548 303.335 418.66 303.191 418.804C303.055 418.948 302.987 419.132 302.987 419.356C302.987 419.684 303.095 419.92 303.311 420.064C303.535 420.208 303.835 420.28 304.211 420.28C304.507 420.28 304.759 420.232 304.967 420.136C305.175 420.032 305.343 419.9 305.471 419.74C305.599 419.58 305.691 419.404 305.747 419.212C305.803 419.012 305.831 418.816 305.831 418.624V418.264H305.255ZM307.722 415.312H308.97L310.662 419.752H310.686L312.294 415.312H313.458L310.758 422.224C310.662 422.472 310.562 422.696 310.458 422.896C310.354 423.104 310.23 423.28 310.086 423.424C309.942 423.568 309.766 423.68 309.558 423.76C309.358 423.84 309.11 423.88 308.814 423.88C308.654 423.88 308.49 423.868 308.322 423.844C308.162 423.828 308.006 423.788 307.854 423.724L307.986 422.74C308.202 422.828 308.418 422.872 308.634 422.872C308.802 422.872 308.942 422.848 309.054 422.8C309.174 422.76 309.274 422.696 309.354 422.608C309.442 422.528 309.514 422.432 309.57 422.32C309.626 422.208 309.682 422.08 309.738 421.936L310.086 421.036L307.722 415.312Z" fill="#6B7280"/>
<path d="M296 287.5C296 285.015 298.015 283 300.5 283C302.985 283 305 285.015 305 287.5V399H296V287.5Z" fill="#034EA2"/>
<path d="M305 276.5C305 274.015 307.015 272 309.5 272C311.985 272 314 274.015 314 276.5V399H305V276.5Z" fill="#CFD8E3"/>
<path d="M344.209 412.504H345.361V418.576C345.361 419.112 345.277 419.552 345.109 419.896C344.941 420.232 344.729 420.5 344.473 420.7C344.225 420.892 343.957 421.024 343.669 421.096C343.381 421.176 343.117 421.216 342.877 421.216C342.277 421.216 341.769 421.064 341.353 420.76C340.945 420.448 340.685 419.98 340.573 419.356L341.701 419.104C341.765 419.424 341.897 419.676 342.097 419.86C342.297 420.044 342.557 420.136 342.877 420.136C343.165 420.136 343.393 420.08 343.561 419.968C343.737 419.856 343.873 419.712 343.969 419.536C344.065 419.352 344.129 419.144 344.161 418.912C344.193 418.68 344.209 418.444 344.209 418.204V412.504ZM352.11 421H351.03V420.124H351.006C350.87 420.428 350.634 420.676 350.298 420.868C349.962 421.052 349.574 421.144 349.134 421.144C348.854 421.144 348.59 421.1 348.342 421.012C348.094 420.932 347.874 420.804 347.682 420.628C347.498 420.452 347.35 420.228 347.238 419.956C347.126 419.676 347.07 419.348 347.07 418.972V415.312H348.15V418.672C348.15 418.936 348.186 419.164 348.258 419.356C348.33 419.54 348.426 419.692 348.546 419.812C348.666 419.924 348.802 420.008 348.954 420.064C349.114 420.112 349.278 420.136 349.446 420.136C349.67 420.136 349.878 420.1 350.07 420.028C350.262 419.956 350.43 419.844 350.574 419.692C350.718 419.532 350.83 419.332 350.91 419.092C350.99 418.852 351.03 418.568 351.03 418.24V415.312H352.11V421ZM353.738 415.312H354.818V416.188H354.842C354.978 415.884 355.214 415.64 355.55 415.456C355.886 415.264 356.274 415.168 356.714 415.168C356.986 415.168 357.246 415.212 357.494 415.3C357.75 415.38 357.97 415.508 358.154 415.684C358.346 415.86 358.498 416.088 358.61 416.368C358.722 416.64 358.778 416.964 358.778 417.34V421H357.698V417.64C357.698 417.376 357.662 417.152 357.59 416.968C357.518 416.776 357.422 416.624 357.302 416.512C357.182 416.392 357.042 416.308 356.882 416.26C356.73 416.204 356.57 416.176 356.402 416.176C356.178 416.176 355.97 416.212 355.778 416.284C355.586 416.356 355.418 416.472 355.274 416.632C355.13 416.784 355.018 416.98 354.938 417.22C354.858 417.46 354.818 417.744 354.818 418.072V421H353.738V415.312Z" fill="#6B7280"/>
<path d="M342 217.5C342 215.015 344.015 213 346.5 213C348.985 213 351 215.015 351 217.5V399H342V217.5Z" fill="#034EA2"/>
<path d="M351 343.5C351 341.015 353.015 339 355.5 339C357.985 339 360 341.015 360 343.5V399H351V343.5Z" fill="#CFD8E3"/>
<path d="M64.476 102.256H67.932L71.334 111.184L74.772 102.256H78.192V115H76.032V104.416H75.996L72.126 115H70.542L66.672 104.416H66.636V115H64.476V102.256ZM79.9181 106.36H82.2941L84.7061 112.354H84.7421L86.9021 106.36H89.1521L85.0661 116.854C84.9101 117.262 84.7361 117.616 84.5441 117.916C84.3641 118.228 84.1481 118.486 83.8961 118.69C83.6441 118.906 83.3441 119.062 82.9961 119.158C82.6601 119.266 82.2521 119.32 81.7721 119.32C81.2081 119.32 80.6561 119.248 80.1161 119.104L80.3861 117.16C80.5541 117.22 80.7281 117.268 80.9081 117.304C81.1001 117.352 81.2921 117.376 81.4841 117.376C81.7481 117.376 81.9701 117.352 82.1501 117.304C82.3301 117.256 82.4801 117.178 82.6001 117.07C82.7321 116.974 82.8401 116.842 82.9241 116.674C83.0081 116.518 83.0981 116.326 83.1941 116.098L83.6081 115.072L79.9181 106.36ZM102.592 104.992C102.352 104.644 102.028 104.392 101.62 104.236C101.224 104.068 100.804 103.984 100.36 103.984C100.096 103.984 99.8382 104.014 99.5862 104.074C99.3462 104.134 99.1242 104.23 98.9202 104.362C98.7282 104.494 98.5722 104.668 98.4522 104.884C98.3322 105.088 98.2722 105.334 98.2722 105.622C98.2722 106.054 98.4222 106.384 98.7222 106.612C99.0222 106.84 99.3942 107.038 99.8382 107.206C100.282 107.374 100.768 107.536 101.296 107.692C101.824 107.848 102.31 108.064 102.754 108.34C103.198 108.616 103.57 108.982 103.87 109.438C104.17 109.894 104.32 110.5 104.32 111.256C104.32 111.94 104.194 112.54 103.942 113.056C103.69 113.56 103.348 113.98 102.916 114.316C102.496 114.652 102.004 114.904 101.44 115.072C100.876 115.24 100.282 115.324 99.6582 115.324C98.8662 115.324 98.1042 115.192 97.3722 114.928C96.6402 114.664 96.0102 114.22 95.4822 113.596L97.1922 111.94C97.4682 112.36 97.8282 112.69 98.2722 112.93C98.7282 113.158 99.2082 113.272 99.7122 113.272C99.9762 113.272 100.24 113.236 100.504 113.164C100.768 113.092 101.008 112.984 101.224 112.84C101.44 112.696 101.614 112.516 101.746 112.3C101.878 112.072 101.944 111.814 101.944 111.526C101.944 111.058 101.794 110.698 101.494 110.446C101.194 110.194 100.822 109.984 100.378 109.816C99.9342 109.636 99.4482 109.468 98.9202 109.312C98.3922 109.156 97.9062 108.946 97.4622 108.682C97.0182 108.406 96.6462 108.046 96.3462 107.602C96.0462 107.146 95.8962 106.54 95.8962 105.784C95.8962 105.124 96.0282 104.554 96.2922 104.074C96.5682 103.594 96.9222 103.198 97.3542 102.886C97.7982 102.562 98.3022 102.322 98.8662 102.166C99.4302 102.01 100.006 101.932 100.594 101.932C101.266 101.932 101.914 102.034 102.538 102.238C103.174 102.442 103.744 102.778 104.248 103.246L102.592 104.992ZM105.676 108.196V106.36H107.458V103.858H109.618V106.36H111.994V108.196H109.618V111.976C109.618 112.408 109.696 112.75 109.852 113.002C110.02 113.254 110.344 113.38 110.824 113.38C111.016 113.38 111.226 113.362 111.454 113.326C111.682 113.278 111.862 113.206 111.994 113.11V114.928C111.766 115.036 111.484 115.108 111.148 115.144C110.824 115.192 110.536 115.216 110.284 115.216C109.708 115.216 109.234 115.15 108.862 115.018C108.502 114.898 108.214 114.712 107.998 114.46C107.794 114.196 107.65 113.872 107.566 113.488C107.494 113.104 107.458 112.66 107.458 112.156V108.196H105.676ZM119.28 113.812H119.226C118.914 114.304 118.518 114.664 118.038 114.892C117.558 115.108 117.03 115.216 116.454 115.216C116.058 115.216 115.668 115.162 115.284 115.054C114.912 114.946 114.576 114.784 114.276 114.568C113.988 114.352 113.754 114.082 113.574 113.758C113.394 113.434 113.304 113.056 113.304 112.624C113.304 112.156 113.388 111.76 113.556 111.436C113.724 111.1 113.946 110.824 114.222 110.608C114.51 110.38 114.84 110.2 115.212 110.068C115.584 109.936 115.968 109.84 116.364 109.78C116.772 109.708 117.18 109.666 117.588 109.654C117.996 109.63 118.38 109.618 118.74 109.618H119.28V109.384C119.28 108.844 119.094 108.442 118.722 108.178C118.35 107.902 117.876 107.764 117.3 107.764C116.844 107.764 116.418 107.848 116.022 108.016C115.626 108.172 115.284 108.388 114.996 108.664L113.862 107.53C114.342 107.038 114.9 106.684 115.536 106.468C116.184 106.252 116.85 106.144 117.534 106.144C118.146 106.144 118.662 106.216 119.082 106.36C119.502 106.492 119.85 106.666 120.126 106.882C120.402 107.098 120.612 107.35 120.756 107.638C120.912 107.914 121.02 108.196 121.08 108.484C121.152 108.772 121.194 109.054 121.206 109.33C121.218 109.594 121.224 109.828 121.224 110.032V115H119.28V113.812ZM119.154 111.13H118.704C118.404 111.13 118.068 111.142 117.696 111.166C117.324 111.19 116.97 111.25 116.634 111.346C116.31 111.43 116.034 111.562 115.806 111.742C115.578 111.91 115.464 112.15 115.464 112.462C115.464 112.666 115.506 112.84 115.59 112.984C115.686 113.116 115.806 113.23 115.95 113.326C116.094 113.422 116.256 113.494 116.436 113.542C116.616 113.578 116.796 113.596 116.976 113.596C117.72 113.596 118.266 113.422 118.614 113.074C118.974 112.714 119.154 112.228 119.154 111.616V111.13ZM122.74 108.196V106.36H124.522V103.858H126.682V106.36H129.058V108.196H126.682V111.976C126.682 112.408 126.76 112.75 126.916 113.002C127.084 113.254 127.408 113.38 127.888 113.38C128.08 113.38 128.29 113.362 128.518 113.326C128.746 113.278 128.926 113.206 129.058 113.11V114.928C128.83 115.036 128.548 115.108 128.212 115.144C127.888 115.192 127.6 115.216 127.348 115.216C126.772 115.216 126.298 115.15 125.926 115.018C125.566 114.898 125.278 114.712 125.062 114.46C124.858 114.196 124.714 113.872 124.63 113.488C124.558 113.104 124.522 112.66 124.522 112.156V108.196H122.74ZM130.998 106.36H133.158V115H130.998V106.36ZM130.692 103.426C130.692 103.078 130.818 102.778 131.07 102.526C131.334 102.262 131.664 102.13 132.06 102.13C132.456 102.13 132.786 102.256 133.05 102.508C133.326 102.748 133.464 103.054 133.464 103.426C133.464 103.798 133.326 104.11 133.05 104.362C132.786 104.602 132.456 104.722 132.06 104.722C131.664 104.722 131.334 104.596 131.07 104.344C130.818 104.08 130.692 103.774 130.692 103.426ZM140.446 108.754C140.026 108.166 139.462 107.872 138.754 107.872C138.466 107.872 138.184 107.944 137.908 108.088C137.632 108.232 137.494 108.466 137.494 108.79C137.494 109.054 137.608 109.246 137.836 109.366C138.064 109.486 138.352 109.588 138.7 109.672C139.048 109.756 139.42 109.846 139.816 109.942C140.224 110.026 140.602 110.164 140.95 110.356C141.298 110.536 141.586 110.788 141.814 111.112C142.042 111.436 142.156 111.88 142.156 112.444C142.156 112.96 142.042 113.398 141.814 113.758C141.598 114.106 141.31 114.388 140.95 114.604C140.602 114.82 140.206 114.976 139.762 115.072C139.318 115.168 138.874 115.216 138.43 115.216C137.758 115.216 137.14 115.12 136.576 114.928C136.012 114.736 135.508 114.388 135.064 113.884L136.504 112.534C136.78 112.846 137.074 113.104 137.386 113.308C137.71 113.5 138.1 113.596 138.556 113.596C138.712 113.596 138.874 113.578 139.042 113.542C139.21 113.506 139.366 113.446 139.51 113.362C139.654 113.278 139.768 113.176 139.852 113.056C139.948 112.924 139.996 112.774 139.996 112.606C139.996 112.306 139.882 112.084 139.654 111.94C139.426 111.796 139.138 111.682 138.79 111.598C138.442 111.502 138.064 111.418 137.656 111.346C137.26 111.262 136.888 111.136 136.54 110.968C136.192 110.788 135.904 110.542 135.676 110.23C135.448 109.918 135.334 109.486 135.334 108.934C135.334 108.454 135.43 108.04 135.622 107.692C135.826 107.332 136.09 107.038 136.414 106.81C136.738 106.582 137.11 106.414 137.53 106.306C137.95 106.198 138.376 106.144 138.808 106.144C139.384 106.144 139.954 106.246 140.518 106.45C141.082 106.642 141.538 106.978 141.886 107.458L140.446 108.754ZM143.028 108.196V106.36H144.81V103.858H146.97V106.36H149.346V108.196H146.97V111.976C146.97 112.408 147.048 112.75 147.204 113.002C147.372 113.254 147.696 113.38 148.176 113.38C148.368 113.38 148.578 113.362 148.806 113.326C149.034 113.278 149.214 113.206 149.346 113.11V114.928C149.118 115.036 148.836 115.108 148.5 115.144C148.176 115.192 147.888 115.216 147.636 115.216C147.06 115.216 146.586 115.15 146.214 115.018C145.854 114.898 145.566 114.712 145.35 114.46C145.146 114.196 145.002 113.872 144.918 113.488C144.846 113.104 144.81 112.66 144.81 112.156V108.196H143.028ZM151.285 106.36H153.445V115H151.285V106.36ZM150.979 103.426C150.979 103.078 151.105 102.778 151.357 102.526C151.621 102.262 151.951 102.13 152.347 102.13C152.743 102.13 153.073 102.256 153.337 102.508C153.613 102.748 153.751 103.054 153.751 103.426C153.751 103.798 153.613 104.11 153.337 104.362C153.073 104.602 152.743 104.722 152.347 104.722C151.951 104.722 151.621 104.596 151.357 104.344C151.105 104.08 150.979 103.774 150.979 103.426ZM162.029 108.952C161.777 108.688 161.513 108.478 161.237 108.322C160.961 108.166 160.679 108.088 160.391 108.088C159.995 108.088 159.641 108.16 159.329 108.304C159.017 108.448 158.747 108.64 158.519 108.88C158.303 109.12 158.135 109.396 158.015 109.708C157.907 110.02 157.853 110.344 157.853 110.68C157.853 111.016 157.907 111.34 158.015 111.652C158.135 111.964 158.303 112.24 158.519 112.48C158.747 112.72 159.017 112.912 159.329 113.056C159.641 113.2 159.995 113.272 160.391 113.272C160.727 113.272 161.039 113.206 161.327 113.074C161.615 112.93 161.861 112.726 162.065 112.462L163.505 114.01C163.289 114.226 163.037 114.412 162.749 114.568C162.473 114.724 162.191 114.85 161.903 114.946C161.615 115.042 161.339 115.108 161.075 115.144C160.811 115.192 160.583 115.216 160.391 115.216C159.743 115.216 159.131 115.108 158.555 114.892C157.979 114.676 157.481 114.37 157.061 113.974C156.641 113.578 156.305 113.104 156.053 112.552C155.813 111.988 155.693 111.364 155.693 110.68C155.693 109.996 155.813 109.378 156.053 108.826C156.305 108.262 156.641 107.782 157.061 107.386C157.481 106.99 157.979 106.684 158.555 106.468C159.131 106.252 159.743 106.144 160.391 106.144C160.943 106.144 161.495 106.252 162.047 106.468C162.611 106.672 163.103 107.002 163.523 107.458L162.029 108.952ZM169.617 108.754C169.197 108.166 168.633 107.872 167.925 107.872C167.637 107.872 167.355 107.944 167.079 108.088C166.803 108.232 166.665 108.466 166.665 108.79C166.665 109.054 166.779 109.246 167.007 109.366C167.235 109.486 167.523 109.588 167.871 109.672C168.219 109.756 168.591 109.846 168.987 109.942C169.395 110.026 169.773 110.164 170.121 110.356C170.469 110.536 170.757 110.788 170.985 111.112C171.213 111.436 171.327 111.88 171.327 112.444C171.327 112.96 171.213 113.398 170.985 113.758C170.769 114.106 170.481 114.388 170.121 114.604C169.773 114.82 169.377 114.976 168.933 115.072C168.489 115.168 168.045 115.216 167.601 115.216C166.929 115.216 166.311 115.12 165.747 114.928C165.183 114.736 164.679 114.388 164.235 113.884L165.675 112.534C165.951 112.846 166.245 113.104 166.557 113.308C166.881 113.5 167.271 113.596 167.727 113.596C167.883 113.596 168.045 113.578 168.213 113.542C168.381 113.506 168.537 113.446 168.681 113.362C168.825 113.278 168.939 113.176 169.023 113.056C169.119 112.924 169.167 112.774 169.167 112.606C169.167 112.306 169.053 112.084 168.825 111.94C168.597 111.796 168.309 111.682 167.961 111.598C167.613 111.502 167.235 111.418 166.827 111.346C166.431 111.262 166.059 111.136 165.711 110.968C165.363 110.788 165.075 110.542 164.847 110.23C164.619 109.918 164.505 109.486 164.505 108.934C164.505 108.454 164.601 108.04 164.793 107.692C164.997 107.332 165.261 107.038 165.585 106.81C165.909 106.582 166.281 106.414 166.701 106.306C167.121 106.198 167.547 106.144 167.979 106.144C168.555 106.144 169.125 106.246 169.689 106.45C170.253 106.642 170.709 106.978 171.057 107.458L169.617 108.754Z" fill="#252F3F"/>
<path d="M310.988 109.51H312.626V118.714H310.988V109.51ZM314.702 112.474H316.184V113.475H316.21C316.357 113.163 316.583 112.895 316.886 112.669C317.189 112.435 317.601 112.318 318.121 112.318C318.537 112.318 318.888 112.388 319.174 112.526C319.469 112.665 319.707 112.847 319.889 113.072C320.071 113.298 320.201 113.558 320.279 113.852C320.357 114.147 320.396 114.455 320.396 114.775V118.714H318.836V115.555C318.836 115.382 318.827 115.191 318.81 114.983C318.793 114.767 318.745 114.567 318.667 114.385C318.598 114.195 318.485 114.039 318.329 113.917C318.173 113.787 317.961 113.722 317.692 113.722C317.432 113.722 317.211 113.766 317.029 113.852C316.856 113.939 316.708 114.056 316.587 114.203C316.474 114.351 316.392 114.52 316.34 114.71C316.288 114.901 316.262 115.1 316.262 115.308V118.714H314.702V112.474ZM322.926 113.8H321.639V112.474H322.926V111.59C322.926 111.157 322.956 110.767 323.017 110.42C323.078 110.065 323.19 109.762 323.355 109.51C323.528 109.259 323.767 109.068 324.07 108.938C324.373 108.8 324.768 108.73 325.253 108.73C325.608 108.73 325.938 108.761 326.241 108.821L326.137 110.147C326.024 110.121 325.916 110.1 325.812 110.082C325.708 110.065 325.6 110.056 325.487 110.056C325.27 110.056 325.097 110.091 324.967 110.16C324.837 110.23 324.733 110.325 324.655 110.446C324.586 110.559 324.538 110.693 324.512 110.849C324.495 111.005 324.486 111.17 324.486 111.343V112.474H325.929V113.8H324.486V118.714H322.926V113.8ZM326.943 108.886H328.503V118.714H326.943V108.886ZM329.961 115.594C329.961 115.1 330.048 114.654 330.221 114.255C330.403 113.848 330.646 113.501 330.949 113.215C331.252 112.929 331.612 112.708 332.028 112.552C332.444 112.396 332.886 112.318 333.354 112.318C333.822 112.318 334.264 112.396 334.68 112.552C335.096 112.708 335.456 112.929 335.759 113.215C336.062 113.501 336.301 113.848 336.474 114.255C336.656 114.654 336.747 115.1 336.747 115.594C336.747 116.088 336.656 116.539 336.474 116.946C336.301 117.345 336.062 117.687 335.759 117.973C335.456 118.259 335.096 118.48 334.68 118.636C334.264 118.792 333.822 118.87 333.354 118.87C332.886 118.87 332.444 118.792 332.028 118.636C331.612 118.48 331.252 118.259 330.949 117.973C330.646 117.687 330.403 117.345 330.221 116.946C330.048 116.539 329.961 116.088 329.961 115.594ZM331.521 115.594C331.521 115.837 331.56 116.071 331.638 116.296C331.725 116.522 331.846 116.721 332.002 116.894C332.167 117.068 332.362 117.206 332.587 117.31C332.812 117.414 333.068 117.466 333.354 117.466C333.64 117.466 333.896 117.414 334.121 117.31C334.346 117.206 334.537 117.068 334.693 116.894C334.858 116.721 334.979 116.522 335.057 116.296C335.144 116.071 335.187 115.837 335.187 115.594C335.187 115.352 335.144 115.118 335.057 114.892C334.979 114.667 334.858 114.468 334.693 114.294C334.537 114.121 334.346 113.982 334.121 113.878C333.896 113.774 333.64 113.722 333.354 113.722C333.068 113.722 332.812 113.774 332.587 113.878C332.362 113.982 332.167 114.121 332.002 114.294C331.846 114.468 331.725 114.667 331.638 114.892C331.56 115.118 331.521 115.352 331.521 115.594ZM337.563 112.474H339.253L340.605 116.842H340.631L341.892 112.474H343.582L344.934 116.842H344.96L346.26 112.474H347.833L345.714 118.714H344.167L342.685 114.45H342.659L341.346 118.714H339.734L337.563 112.474Z" fill="#64748B"/>
<rect x="289" y="104.104" width="14" height="14" rx="5" fill="#034EA2"/>
<path d="M310.533 142.253C310.533 141.517 310.654 140.849 310.897 140.251C311.14 139.645 311.473 139.129 311.898 138.704C312.331 138.28 312.843 137.955 313.432 137.729C314.03 137.495 314.684 137.378 315.395 137.378C316.114 137.37 316.773 137.478 317.371 137.703C317.969 137.92 318.485 138.241 318.918 138.665C319.351 139.09 319.689 139.601 319.932 140.199C320.175 140.797 320.296 141.465 320.296 142.201C320.296 142.921 320.175 143.575 319.932 144.164C319.689 144.754 319.351 145.261 318.918 145.685C318.485 146.11 317.969 146.444 317.371 146.686C316.773 146.92 316.114 147.042 315.395 147.05C314.684 147.05 314.03 146.938 313.432 146.712C312.843 146.478 312.331 146.153 311.898 145.737C311.473 145.313 311.14 144.806 310.897 144.216C310.654 143.627 310.533 142.973 310.533 142.253ZM312.249 142.149C312.249 142.643 312.323 143.098 312.47 143.514C312.626 143.93 312.843 144.29 313.12 144.593C313.397 144.897 313.727 145.135 314.108 145.308C314.498 145.482 314.931 145.568 315.408 145.568C315.885 145.568 316.318 145.482 316.708 145.308C317.098 145.135 317.432 144.897 317.709 144.593C317.986 144.29 318.199 143.93 318.346 143.514C318.502 143.098 318.58 142.643 318.58 142.149C318.58 141.69 318.502 141.261 318.346 140.862C318.199 140.464 317.986 140.117 317.709 139.822C317.432 139.519 317.098 139.285 316.708 139.12C316.318 138.947 315.885 138.86 315.408 138.86C314.931 138.86 314.498 138.947 314.108 139.12C313.727 139.285 313.397 139.519 313.12 139.822C312.843 140.117 312.626 140.464 312.47 140.862C312.323 141.261 312.249 141.69 312.249 142.149ZM327.607 146.816H326.125V145.815H326.099C325.952 146.127 325.726 146.4 325.423 146.634C325.12 146.86 324.708 146.972 324.188 146.972C323.772 146.972 323.417 146.907 323.122 146.777C322.836 146.639 322.602 146.457 322.42 146.231C322.238 145.997 322.108 145.733 322.03 145.438C321.952 145.144 321.913 144.836 321.913 144.515V140.576H323.473V143.735C323.473 143.909 323.482 144.104 323.499 144.32C323.516 144.528 323.56 144.728 323.629 144.918C323.707 145.1 323.82 145.256 323.967 145.386C324.123 145.508 324.34 145.568 324.617 145.568C324.877 145.568 325.094 145.525 325.267 145.438C325.449 145.352 325.596 145.235 325.709 145.087C325.83 144.94 325.917 144.771 325.969 144.58C326.021 144.39 326.047 144.19 326.047 143.982V140.576H327.607V146.816ZM328.85 141.902V140.576H330.137V138.769H331.697V140.576H333.413V141.902H331.697V144.632C331.697 144.944 331.753 145.191 331.866 145.373C331.987 145.555 332.221 145.646 332.568 145.646C332.707 145.646 332.858 145.633 333.023 145.607C333.188 145.573 333.318 145.521 333.413 145.451V146.764C333.248 146.842 333.045 146.894 332.802 146.92C332.568 146.955 332.36 146.972 332.178 146.972C331.762 146.972 331.42 146.925 331.151 146.829C330.891 146.743 330.683 146.608 330.527 146.426C330.38 146.236 330.276 146.002 330.215 145.724C330.163 145.447 330.137 145.126 330.137 144.762V141.902H328.85ZM335.39 141.902H334.103V140.576H335.39V139.692C335.39 139.259 335.42 138.869 335.481 138.522C335.541 138.167 335.654 137.864 335.819 137.612C335.992 137.361 336.23 137.17 336.534 137.04C336.837 136.902 337.231 136.832 337.717 136.832C338.072 136.832 338.401 136.863 338.705 136.923L338.601 138.249C338.488 138.223 338.38 138.202 338.276 138.184C338.172 138.167 338.063 138.158 337.951 138.158C337.734 138.158 337.561 138.193 337.431 138.262C337.301 138.332 337.197 138.427 337.119 138.548C337.049 138.661 337.002 138.795 336.976 138.951C336.958 139.107 336.95 139.272 336.95 139.445V140.576H338.393V141.902H336.95V146.816H335.39V141.902ZM339.407 136.988H340.967V146.816H339.407V136.988ZM342.425 143.696C342.425 143.202 342.511 142.756 342.685 142.357C342.867 141.95 343.109 141.603 343.413 141.317C343.716 141.031 344.076 140.81 344.492 140.654C344.908 140.498 345.35 140.42 345.818 140.42C346.286 140.42 346.728 140.498 347.144 140.654C347.56 140.81 347.919 141.031 348.223 141.317C348.526 141.603 348.764 141.95 348.938 142.357C349.12 142.756 349.211 143.202 349.211 143.696C349.211 144.19 349.12 144.641 348.938 145.048C348.764 145.447 348.526 145.789 348.223 146.075C347.919 146.361 347.56 146.582 347.144 146.738C346.728 146.894 346.286 146.972 345.818 146.972C345.35 146.972 344.908 146.894 344.492 146.738C344.076 146.582 343.716 146.361 343.413 146.075C343.109 145.789 342.867 145.447 342.685 145.048C342.511 144.641 342.425 144.19 342.425 143.696ZM343.985 143.696C343.985 143.939 344.024 144.173 344.102 144.398C344.188 144.624 344.31 144.823 344.466 144.996C344.63 145.17 344.825 145.308 345.051 145.412C345.276 145.516 345.532 145.568 345.818 145.568C346.104 145.568 346.359 145.516 346.585 145.412C346.81 145.308 347.001 145.17 347.157 144.996C347.321 144.823 347.443 144.624 347.521 144.398C347.607 144.173 347.651 143.939 347.651 143.696C347.651 143.454 347.607 143.22 347.521 142.994C347.443 142.769 347.321 142.57 347.157 142.396C347.001 142.223 346.81 142.084 346.585 141.98C346.359 141.876 346.104 141.824 345.818 141.824C345.532 141.824 345.276 141.876 345.051 141.98C344.825 142.084 344.63 142.223 344.466 142.396C344.31 142.57 344.188 142.769 344.102 142.994C344.024 143.22 343.985 143.454 343.985 143.696ZM350.026 140.576H351.716L353.068 144.944H353.094L354.355 140.576H356.045L357.397 144.944H357.423L358.723 140.576H360.296L358.177 146.816H356.63L355.148 142.552H355.122L353.809 146.816H352.197L350.026 140.576Z" fill="#64748B"/>
<rect x="289" y="132.104" width="14" height="14" rx="5" fill="#CFD8E3"/>
<path d="M67.992 144.672H69.528V152.768C69.528 153.483 69.416 154.069 69.192 154.528C68.968 154.976 68.6853 155.333 68.344 155.6C68.0133 155.856 67.656 156.032 67.272 156.128C66.888 156.235 66.536 156.288 66.216 156.288C65.416 156.288 64.7387 156.085 64.184 155.68C63.64 155.264 63.2933 154.64 63.144 153.808L64.648 153.472C64.7333 153.899 64.9093 154.235 65.176 154.48C65.4427 154.725 65.7893 154.848 66.216 154.848C66.6 154.848 66.904 154.773 67.128 154.624C67.3627 154.475 67.544 154.283 67.672 154.048C67.8 153.803 67.8853 153.525 67.928 153.216C67.9707 152.907 67.992 152.592 67.992 152.272V144.672ZM75.9268 144.672H77.3187L82.1667 156H80.3748L79.2388 153.2H73.8468L72.7267 156H70.9347L75.9268 144.672ZM78.6788 151.856L76.5668 146.656H76.5347L74.3907 151.856H78.6788ZM83.8404 144.672H85.8564L92.0964 153.984H92.1284V144.672H93.6644V156H91.7124L85.4084 146.688H85.3764V156H83.8404V144.672ZM104.468 152.8H100.532V151.456H104.468V152.8ZM114.88 144.672H116.416V152.768C116.416 153.483 116.304 154.069 116.08 154.528C115.856 154.976 115.573 155.333 115.232 155.6C114.901 155.856 114.544 156.032 114.16 156.128C113.776 156.235 113.424 156.288 113.104 156.288C112.304 156.288 111.626 156.085 111.072 155.68C110.528 155.264 110.181 154.64 110.032 153.808L111.536 153.472C111.621 153.899 111.797 154.235 112.064 154.48C112.33 154.725 112.677 154.848 113.104 154.848C113.488 154.848 113.792 154.773 114.016 154.624C114.25 154.475 114.432 154.283 114.56 154.048C114.688 153.803 114.773 153.525 114.816 153.216C114.858 152.907 114.88 152.592 114.88 152.272V144.672ZM120.59 144.672V151.616C120.59 151.968 120.638 152.336 120.734 152.72C120.83 153.093 120.99 153.44 121.214 153.76C121.438 154.08 121.732 154.341 122.094 154.544C122.457 154.747 122.905 154.848 123.438 154.848C123.972 154.848 124.42 154.747 124.782 154.544C125.145 154.341 125.438 154.08 125.662 153.76C125.886 153.44 126.046 153.093 126.142 152.72C126.238 152.336 126.286 151.968 126.286 151.616V144.672H127.822V151.856C127.822 152.517 127.71 153.12 127.486 153.664C127.262 154.197 126.953 154.661 126.558 155.056C126.164 155.451 125.7 155.755 125.166 155.968C124.633 156.181 124.057 156.288 123.438 156.288C122.82 156.288 122.244 156.181 121.71 155.968C121.177 155.755 120.713 155.451 120.318 155.056C119.924 154.661 119.614 154.197 119.39 153.664C119.166 153.12 119.054 152.517 119.054 151.856V144.672H120.59ZM130.728 144.672H132.744L138.984 153.984H139.016V144.672H140.552V156H138.6L132.296 146.688H132.264V156H130.728V144.672Z" fill="#034EA2"/>
<path fill-rule="evenodd" clip-rule="evenodd" d="M148.41 147.911C148.736 147.585 149.263 147.585 149.589 147.911L153.999 152.321L158.41 147.911C158.736 147.585 159.263 147.585 159.589 147.911C159.914 148.236 159.914 148.764 159.589 149.089L154.589 154.089C154.263 154.415 153.736 154.415 153.41 154.089L148.41 149.089C148.085 148.764 148.085 148.236 148.41 147.911Z" fill="#9FA6B2"/>
</g>
</g>
</g>
<path fill-rule="evenodd" clip-rule="evenodd" d="M428 300V781.956C428 810.484 425.03 820.829 419.452 831.259C413.874 841.689 405.689 849.874 395.259 855.452C384.829 861.03 374.484 864 345.956 864H85.0443C56.5157 864 46.1706 861.03 35.7409 855.452C25.3113 849.874 17.1261 841.689 11.5482 831.259C5.97042 820.829 3 810.484 3 781.956V321C1.34315 321 0 319.657 0 318V260C0 258.343 1.34315 257 3 257V242C1.34315 242 0 240.657 0 239V181C0 179.343 1.34315 178 3 178V151C1.34315 151 0 149.657 0 148V120C0 118.343 1.34315 117 3 117V82.0443C3 53.5157 5.97042 43.1706 11.5482 32.7409C17.1261 22.3113 25.3113 14.1261 35.7409 8.54825C46.1706 2.97042 56.5157 0 85.0443 0H345.956C374.484 0 384.829 2.97042 395.259 8.54825C405.689 14.1261 413.874 22.3113 419.452 32.7409C425.03 43.1706 428 53.5157 428 82.0443V199C429.657 199 431 200.343 431 202V297C431 298.657 429.657 300 428 300ZM27 87.8C27 66.518 27 55.877 31.1418 47.7484C34.7849 40.5982 40.5982 34.7849 47.7484 31.1418C55.877 27 66.518 27 87.8 27L103 27C106.684 27.0098 109.732 29.865 109.998 33.4837C110.14 38.4568 111.1 42.1066 112.785 45.2569C114.615 48.6791 117.301 51.3649 120.723 53.1951C124.145 55.0253 128.157 56 133.814 56H295.146C300.803 56 304.815 55.0253 308.237 53.1951C311.659 51.3649 314.345 48.6791 316.175 45.2569C317.857 42.1117 318.817 38.4686 318.961 33.5079C319.216 29.8778 322.269 27.0098 325.961 27L341.2 27C362.482 27 373.123 27 381.252 31.1418C388.402 34.7849 394.215 40.5982 397.858 47.7484C402 55.877 402 66.518 402 87.8V778.2C402 799.482 402 810.123 397.858 818.252C394.215 825.402 388.402 831.215 381.252 834.858C373.123 839 362.482 839 341.2 839H87.8C66.518 839 55.877 839 47.7484 834.858C40.5982 831.215 34.7849 825.402 31.1418 818.252C27 810.123 27 799.482 27 778.2V87.8Z" fill="black"/>
<path fill-rule="evenodd" clip-rule="evenodd" d="M261 42C264.866 42 268 38.866 268 35C268 31.134 264.866 28 261 28C257.134 28 254 31.134 254 35C254 38.866 257.134 42 261 42Z" fill="#232323"/>
<rect x="189" y="31" width="52" height="8" rx="4" fill="#232323"/>
<defs>
<filter id="filter0_d" x="12" y="-350" width="405" height="422" filterUnits="userSpaceOnUse" color-interpolation-filters="sRGB">
<feFlood flood-opacity="0" result="BackgroundImageFix"/>
<feColorMatrix in="SourceAlpha" type="matrix" values="0 0 0 0 0 0 0 0 0 0 0 0 0 0 0 0 0 0 127 0" result="hardAlpha"/>
<feOffset dy="4"/>
<feGaussianBlur stdDeviation="15"/>
<feColorMatrix type="matrix" values="0 0 0 0 0.407843 0 0 0 0 0.458824 0 0 0 0 0.509804 0 0 0 0.1 0"/>
<feBlend mode="normal" in2="BackgroundImageFix" result="effect1_dropShadow"/>
<feBlend mode="normal" in="SourceGraphic" in2="effect1_dropShadow" result="shape"/>
</filter>
<filter id="filter1_d" x="12" y="36" width="405" height="468" filterUnits="userSpaceOnUse" color-interpolation-filters="sRGB">
<feFlood flood-opacity="0" result="BackgroundImageFix"/>
<feColorMatrix in="SourceAlpha" type="matrix" values="0 0 0 0 0 0 0 0 0 0 0 0 0 0 0 0 0 0 127 0" result="hardAlpha"/>
<feOffset dy="4"/>
<feGaussianBlur stdDeviation="15"/>
<feColorMatrix type="matrix" values="0 0 0 0 0.407843 0 0 0 0 0.458824 0 0 0 0 0.509804 0 0 0 0.1 0"/>
<feBlend mode="normal" in2="BackgroundImageFix" result="effect1_dropShadow"/>
<feBlend mode="normal" in="SourceGraphic" in2="effect1_dropShadow" result="shape"/>
</filter>
<clipPath id="clip0">
<rect width="375" height="812" fill="white" transform="translate(27 27)"/>
</clipPath>
<clipPath id="clip1">
<rect width="375" height="1404" fill="white" transform="translate(27 -880)"/>
</clipPath>
</defs>
</svg>
