<svg width="1421" height="864" viewBox="0 0 1421 864" fill="none" xmlns="http://www.w3.org/2000/svg">
<g clip-path="url(#clip0_11562_50275)">
<g style="mix-blend-mode:multiply" opacity="0.2">
<rect x="322.969" y="365.602" width="105.718" height="105.718" rx="11.5115" transform="rotate(-180 322.969 365.602)" fill="#E5E7EB"/>
</g>
<g style="mix-blend-mode:multiply" opacity="0.2">
<rect x="361.145" y="259.883" width="39.8539" height="39.4343" rx="11.5115" transform="rotate(-180 361.145 259.883)" fill="#E5E7EB"/>
</g>
<g style="mix-blend-mode:multiply" opacity="0.1">
<rect x="544.609" y="365.063" width="144.613" height="144.613" rx="11.5115" transform="rotate(-180 544.609 365.063)" fill="#EDC239"/>
</g>
<g style="mix-blend-mode:multiply" opacity="0.2">
<rect x="348.195" y="607.458" width="183.464" height="183.464" rx="11.5115" transform="rotate(-180 348.195 607.458)" fill="#EDEEFF"/>
</g>
<g style="mix-blend-mode:multiply" opacity="0.2">
<rect x="594.254" y="534.728" width="100.006" height="100.006" rx="11.5115" transform="rotate(-180 594.254 534.728)" fill="#E5E7EB"/>
</g>
<path d="M1597.78 366.213L1060 366.213" stroke="#EDEEFF" stroke-width="0.4"/>
<path d="M1597.78 231.657L1060 231.657" stroke="#EDEEFF" stroke-width="0.4"/>
<path d="M1597.78 97.1006L1060 97.1006" stroke="#EDEEFF" stroke-width="0.4"/>
<path d="M1597.78 500.77L1060 500.77" stroke="#EDEEFF" stroke-width="0.4"/>
<path d="M1194.11 621.87L1194.11 -23.9998" stroke="#EDEEFF" stroke-width="0.4"/>
<path d="M1328.66 621.87L1328.66 -23.9997" stroke="#EDEEFF" stroke-width="0.4"/>
<path d="M313.777 366.213L-223.999 366.213" stroke="#EDEEFF" stroke-width="0.4"/>
<path d="M313.777 231.657L-223.999 231.657" stroke="#EDEEFF" stroke-width="0.4"/>
<path d="M313.777 97.1005L-223.999 97.1005" stroke="#EDEEFF" stroke-width="0.4"/>
<path d="M313.777 500.769L-223.999 500.769" stroke="#EDEEFF" stroke-width="0.4"/>
<path d="M179.223 621.87L179.223 -23.9998" stroke="#EDEEFF" stroke-width="0.4"/>
<path d="M44.6641 621.87L44.6641 -23.9999" stroke="#EDEEFF" stroke-width="0.4"/>
</g>
<defs>
<clipPath id="clip0_11562_50275">
<rect width="1440" height="864" fill="white"/>
</clipPath>
</defs>
</svg>
