<svg width="93" height="32" viewBox="0 0 93 32" fill="none" xmlns="http://www.w3.org/2000/svg">
<path d="M0 27.871H16.416V32H0V27.871Z" fill="#161E2E"/>
<path d="M23.6719 25.5068C22.0741 25.3736 20.7717 25.1294 19.7649 24.7742C18.7799 24.3968 18.0467 24.086 17.5651 23.8418L18.9769 20.0125C19.743 20.3899 20.6514 20.734 21.702 21.0447C22.7745 21.3555 23.9017 21.5109 25.0837 21.5109C26.4189 21.5109 27.3272 21.3333 27.8088 20.9781C28.3122 20.6008 28.5639 20.0791 28.5639 19.4131C28.5639 18.9913 28.4654 18.6361 28.2684 18.3476C28.0714 18.0368 27.7869 17.7593 27.4148 17.5151C27.0427 17.2709 26.5721 17.0378 26.003 16.8158C25.4339 16.5716 24.7773 16.3163 24.0331 16.0499C23.3108 15.7836 22.5994 15.495 21.899 15.1842C21.2204 14.8512 20.5966 14.4516 20.0276 13.9854C19.4804 13.5192 19.0316 12.9532 18.6814 12.2872C18.3531 11.599 18.189 10.7777 18.189 9.8231C18.189 9.09053 18.2875 8.39126 18.4844 7.72528C18.7033 7.03711 19.0316 6.41554 19.4694 5.86056C19.9072 5.30558 20.4763 4.8394 21.1767 4.46202C21.8771 4.06243 22.7088 3.77385 23.6719 3.59625V0H27.8088V3.46306C28.9469 3.57405 29.9209 3.74055 30.7308 3.96254C31.5625 4.18453 32.2192 4.40652 32.7007 4.62851L31.6829 8.62435C30.9606 8.31356 30.1179 8.04717 29.1549 7.82518C28.2137 7.60319 27.2178 7.4922 26.1671 7.4922C25.1165 7.4922 24.3614 7.66979 23.9017 8.02497C23.4421 8.38016 23.2123 8.84634 23.2123 9.42352C23.2123 9.7787 23.2779 10.0895 23.4093 10.3559C23.5625 10.6001 23.7923 10.8221 24.0987 11.0219C24.4052 11.2216 24.7773 11.4214 25.215 11.6212C25.6747 11.7988 26.2219 11.9986 26.8566 12.2206C27.8197 12.5758 28.7062 12.9643 29.516 13.3861C30.3478 13.8078 31.0591 14.2962 31.6501 14.8512C32.263 15.384 32.7336 16.0166 33.0619 16.7492C33.4121 17.4818 33.5872 18.3365 33.5872 19.3132C33.5872 19.9792 33.4887 20.6452 33.2917 21.3111C33.0947 21.9549 32.7664 22.5543 32.3067 23.1093C31.8471 23.6642 31.2452 24.1415 30.501 24.5411C29.7787 24.9407 28.8813 25.2293 27.8088 25.4069V29.4693H23.6719V25.5068Z" fill="#161E2E"/>
<path d="M52.1163 25.2404C51.2845 25.4846 50.212 25.7066 48.8987 25.9063C47.5854 26.1283 46.2065 26.2393 44.7619 26.2393C43.2954 26.2393 42.0697 26.0395 41.0847 25.64C40.1216 25.2404 39.3555 24.6854 38.7865 23.975C38.2174 23.2425 37.8124 22.3767 37.5717 21.3777C37.3309 20.3788 37.2105 19.2799 37.2105 18.0812V8.32466H42.1025V17.4818C42.1025 19.0801 42.3104 20.2345 42.7263 20.9448C43.1422 21.6552 43.9192 22.0104 45.0574 22.0104C45.4076 22.0104 45.7797 21.9993 46.1737 21.9771C46.5676 21.9327 46.9179 21.8883 47.2243 21.8439V8.32466H52.1163V25.2404Z" fill="#161E2E"/>
<path d="M60.8781 16.949C60.8781 18.4807 61.2173 19.7128 61.8959 20.6452C62.5744 21.5775 63.5812 22.0437 64.9164 22.0437C65.3542 22.0437 65.7591 22.0326 66.1312 22.0104C66.5033 21.966 66.8097 21.9216 67.0505 21.8772V12.8533C66.7441 12.6535 66.3391 12.487 65.8357 12.3538C65.3542 12.2206 64.8617 12.154 64.3583 12.154C62.0381 12.154 60.8781 13.7523 60.8781 16.949ZM71.9425 25.2737C71.5047 25.4069 71.0013 25.5401 70.4322 25.6733C69.8631 25.7842 69.2612 25.8841 68.6264 25.9729C68.0136 26.0617 67.3788 26.1283 66.7222 26.1727C66.0874 26.2393 65.4745 26.2726 64.8836 26.2726C63.4609 26.2726 62.1913 26.0617 61.0751 25.64C59.9588 25.2182 59.0176 24.6188 58.2515 23.8418C57.4854 23.0427 56.8944 22.0881 56.4786 20.9781C56.0846 19.846 55.8876 18.5806 55.8876 17.1821C55.8876 15.7614 56.0627 14.4849 56.4129 13.3528C56.7631 12.1984 57.2665 11.2216 57.9232 10.4225C58.5798 9.62331 59.3787 9.01283 60.3199 8.59105C61.283 8.16927 62.3774 7.95838 63.6031 7.95838C64.2817 7.95838 64.8836 8.02497 65.4089 8.15817C65.9561 8.29136 66.5033 8.48005 67.0505 8.72425V0.799167L71.9425 0V25.2737Z" fill="#161E2E"/>
<path d="M92.6764 17.0489C92.6764 18.4252 92.4794 19.6906 92.0854 20.8449C91.6915 21.9771 91.1224 22.9539 90.3782 23.7752C89.634 24.5744 88.7366 25.196 87.6859 25.64C86.6572 26.0839 85.4971 26.3059 84.2057 26.3059C82.9362 26.3059 81.7762 26.0839 80.7255 25.64C79.6968 25.196 78.8103 24.5744 78.0662 23.7752C77.322 22.9539 75.7023 17.0489 76.3261 20.8449C75.9102 19.6906 75.7023 18.4252 75.7023 17.0489C75.7023 15.6726 75.9102 14.4183 76.3261 13.2862C76.7638 12.154 77.3548 11.1883 78.099 10.3892C78.8651 9.59001 79.7625 8.96843 80.7912 8.52445C81.8418 8.08047 82.98 7.85848 84.2057 7.85848C85.4534 7.85848 86.5915 8.08047 87.6203 8.52445C88.6709 8.96843 89.5683 9.59001 90.3125 10.3892C91.0567 11.1883 91.6367 12.154 92.0526 13.2862C92.4685 14.4183 92.6764 15.6726 92.6764 17.0489ZM87.6859 17.0489C87.6859 15.5172 87.3795 14.3184 86.7667 13.4527C86.1757 12.5647 85.322 12.1207 84.2057 12.1207C83.0895 12.1207 82.2249 12.5647 81.612 13.4527C80.9992 14.3184 80.6927 15.5172 80.6927 17.0489C80.6927 18.5806 80.9992 19.8016 81.612 20.7118C82.2249 21.5997 83.0895 22.0437 84.2057 22.0437C85.322 22.0437 86.1757 21.5997 86.7667 20.7118C87.3795 19.8016 87.6859 18.5806 87.6859 17.0489Z" fill="#161E2E"/>
</svg>
